<!DOCTYPE svg PUBLIC "-//W3C//DTD SVG 1.1//EN" "http://www.w3.org/Graphics/SVG/1.1/DTD/svg11.dtd">
<svg  x="0px" y="0px"
	 viewBox="0 0 20 20" enable-background="new 0 0 20 20" xml:space="preserve">
<path fill="#FFFFFF" d="M1150 774q0 -56 -39.5 -95t-95.5 -39h-253v269h253q56 0 95.5 -39.5t39.5 -95.5zM1329 774q0 130 -91.5 222t-222.5 92h-433v-896h180v269h253q130 0 222 91.5t92 221.5zM1792 640q0 -182 -71 -348t-191 -286t-286 -191t-348 -71t-348 71t-286 191t-191 286t-71 348
t71 348t191 286t286 191t348 71t348 -71t286 -191t191 -286t71 -348z" />
</svg>
